Simulation
nRows=19
nColumns=15
endheader
time  TH_x TH_y TH_z SC_y  SC_z  SC_x  AC_y  AC_z  AC_x  GH_y  GH_z  GH_yy  EL_x  PS_y
0.0  0.000000  0.000000  0.000000  -29.353739010839853  0.3711981942445768  -3.7113422025757927  56.270575424351335  9.417418992257506  -4.459709486913623  31.59431005122688  16.11033407832735  8.754333467729118  27.108766761159398  0.000000
0.038999999999999986  0.000000  0.000000  0.000000  -28.88701026591028  0.7140815205452423  -3.8732043525711926  55.899698838244106  9.430647977399145  -4.29239945448066  31.607635083856042  16.12708554254057  8.575856460240827  26.704077911672915  0.000000
0.07799999999999997  0.000000  0.000000  0.000000  -28.47862231363983  0.9649907024766404  -4.1221124576892105  55.557844472728505  9.423982267766748  -4.134134792601301  31.500792630375  16.080128448103235  8.53193744101612  26.28885262975713  0.000000
0.11699999999999997  0.000000  0.000000  0.000000  -28.12872325473178  1.1148578874390251  -4.436079432337432  55.29130368349056  9.441915837651024  -3.9636054060385177  31.39155507632413  16.056008490190866  8.4659084016685  25.89295699598462  0.000000
0.15599999999999994  0.000000  0.000000  0.000000  -27.867666060836275  1.167009430585664  -4.784563330372016  55.15789628438586  9.52083109108817  -3.767963197394172  31.452932774747943  16.15316263375157  8.145277874454532  25.538031809950134  0.000000
0.19499999999999992  0.000000  0.000000  0.000000  -27.697213773236427  1.14707795679062  -5.114083080811357  55.16100407714102  9.661357770367381  -3.5503009432797774  31.878955745187987  16.45774799920429  7.319038111569784  25.244094772705925  0.000000
0.23399999999999993  0.000000  0.000000  0.000000  -27.629602245836942  1.09040870545279  -5.382341118241159  55.29979563616572  9.860593182779002  -3.321354621610834  32.82245640481622  17.033536425673383  5.79419348606175  25.02271010721586  0.000000
0.2729999999999999  0.000000  0.000000  0.000000  -27.646200112069565  1.030276576999013  -5.550733960431136  55.53250591499941  10.09506403977841  -3.098835120543556  34.33071519165777  17.92045618657723  3.4903696075073913  24.871709264761236  0.000000
0.3119999999999999  0.000000  0.000000  0.000000  -27.730335514497447  0.9923343247838136  -5.595622777294621  55.84042264793033  10.344561297920908  -2.898990783324521  36.30820596184668  19.13107279549042  0.48674431139367375  24.782004896613646  0.000000
0.35099999999999987  0.000000  0.000000  0.000000  -27.830996644241427  0.9918820554748429  -5.497695884886041  56.18391102584472  10.580419660150893  -2.7345000007112317  38.54512570941967  20.65133903486318  -3.011298597124203  24.744359367840687  0.000000
0.38999999999999985  0.000000  0.000000  0.000000  -27.907191436173854  1.0324807073990594  -5.249285428325223  56.55936847103664  10.790902434975273  -2.615947540042909  40.78922946687238  22.440034139955397  -6.736289059206187  24.753931550166328  0.000000
0.4289999999999998  0.000000  0.000000  0.000000  -27.902844970343843  1.1114139283631363  -4.844842307594878  56.94107943491628  10.966690406960153  -2.5495357993815455  42.827429218688216  24.435264124309334  -10.444955030346598  24.810531998094806  0.000000
0.46799999999999986  0.000000  0.000000  0.000000  -27.7971931278561  1.2243935372826809  -4.283489648330501  57.33644856070714  11.112717625876888  -2.5407272515759556  44.54073995644217  26.566723088898787  -13.976138057287905  24.909057629159097  0.000000
0.5069999999999998  0.000000  0.000000  0.000000  -27.570478607472243  1.367507444248477  -3.560345646383253  57.72560356679614  11.228097755143715  -2.591807838623727  45.90229363799541  28.766210214310778  -17.260793546787784  25.032431305425455  0.000000
0.5459999999999998  0.000000  0.000000  0.000000  -27.242796014052136  1.5411277576110383  -2.6700108204308814  58.11481571950992  11.314380535053886  -2.707503424763413  46.96046460577137  30.979331296099694  -20.312085807231078  25.156093162492823  0.000000
0.5849999999999997  0.000000  0.000000  0.000000  -26.83666208860387  1.7482852147836931  -1.6056782514647783  58.475871729506295  11.363831339096564  -2.8898689510054085  47.80852304490928  33.1647008640317  -23.20142812632496  25.258257694836566  0.000000
0.6239999999999998  0.000000  0.000000  0.000000  -26.403433806325435  1.9937469211334204  -0.3688157960137307  58.80612930762603  11.371345800316977  -3.1396995872338267  48.546284944149654  35.30084132745843  -26.0218230509173  25.324529138082134  0.000000
0.6629999999999998  0.000000  0.000000  0.000000  -25.97929013957056  2.279631629615801  1.0360740398967943  59.076562480238664  11.327709780337086  -3.4525381086489197  49.26318142240116  37.37530945654812  -28.856153603277445  25.346995051563134  0.000000
0.7019999999999997  0.000000  0.000000  0.000000  -25.59877194331904  2.6062881429306315  2.593998544310061  59.29628038249639  11.234334141096076  -3.8165834441268403  49.99513980083694  39.38565019139181  -31.721862722079276  25.323246073427327  0.000000
